<svg xmlns="http://www.w3.org/2000/svg" viewBox="0 0 72.31 81.67"><defs><style>.cls-1{fill:#000;}</style></defs><title>phone_outline</title><g id="Layer_2" data-name="Layer 2"><g id="Layer_1-2" data-name="Layer 1"><path class="cls-1" d="M51.83,81.67A16.14,16.14,0,0,1,49,81.43c-8.84-1-21.87-13.53-31.13-24.91-6.51-8-11.71-16.24-14.64-23.2C.81,28-.27,23.64.06,20.39.56,8.55,13.63,1.27,15.12.48L16,0l2.53,3.88L21.47,8.2l5.14,7.61,0,.06c.07.11.13.22.2.35a4.82,4.82,0,0,1-.28,5.92,4.55,4.55,0,0,1-.88,1L23.36,25l-4,3.51c-.68.58-.65.78-.51,1l16.6,21.26,8.17,9.82c.51.56.87.62,2-.08l3.83-2.85,2.72-2.15a4.79,4.79,0,0,1,5.6-.26,4.6,4.6,0,0,1,1,.85c.12.09.21.18.3.26l0,.05,6.35,6.64c1.78,1.87,3.46,3.63,3.62,3.78l0,0,3.2,3.26-.66.77C70.65,72.12,62.24,81.67,51.83,81.67ZM15.28,2.94c-5.06,2.95-12.66,9.45-13,17.58v.07c-.29,2.81.75,6.9,3,11.83,2.87,6.81,8,14.86,14.33,22.69C30.9,69,42.55,78.46,49.28,79.22h.07c8,1.4,16-4.65,19.93-9l-1.76-1.78c-.2-.2-.92-1-3.67-3.84L57.52,58l-.15-.13-.12-.08-.09-.11a2.66,2.66,0,0,0-.64-.51,2.58,2.58,0,0,0-3,.11l-2.75,2.18-4,2.94c-.72.46-2.9,1.87-4.87-.3l0,0-8.2-9.87L17,30.79l0-.08c-.76-1.39-.43-2.7,1-3.89l4-3.52,2.35-1.93a2.47,2.47,0,0,0,.49-.55l.09-.11A2.58,2.58,0,0,0,25,17.46l-.09-.12-.05-.13-.1-.18L19.62,9.45c-2.24-3.31-2.82-4.17-3-4.41Z"/></g></g></svg>