<svg xmlns="http://www.w3.org/2000/svg" viewBox="0 0 62.87 71.35"><defs><style>.cls-1{fill:#000;fill-rule:evenodd;}</style></defs><title>phone_full</title><g id="Layer_2" data-name="Layer 2"><g id="Layer_1-2" data-name="Layer 1"><path class="cls-1" d="M60.62,59.75c-.16-.14-5.68-6-9-9.44a3,3,0,0,0-.27-.23,3.4,3.4,0,0,0-.81-.67,3.31,3.31,0,0,0-3.88.18l-2.48,2-3.48,2.59c-1,.63-2,1.09-3.1-.09l-7.4-8.91-15-19.24c-.46-.83-.26-1.49.65-2.26l3.65-3.18,2.1-1.72a3.53,3.53,0,0,0,.63-.71,3.33,3.33,0,0,0,.17-4.21,3.07,3.07,0,0,0-.17-.31c-2.69-4-7.2-10.65-7.3-10.83L13.1,0C9,2.2.4,8.53.05,17.15c-.3,2.92.8,6.84,2.78,11.2,2.7,6.4,7.5,13.85,13.06,20.68,9,11,20.26,21.31,27.45,22.12,8.49,1.48,16.5-5.54,19.53-9.12Z"/></g></g></svg>